<svg viewBox="0 0 319 78" preserveAspectRatio="xMinYMin meet" xmlns="http://www.w3.org/2000/svg"><g fill="#2CA532"><path d="M16.751 58.9245l-1.5068-1.5406 17.4121-17.0262v-3.148l7.096-7.0935v-9.9359l2.7973-4.1361V1h2.1549v15.7043l-2.7974 4.1361v10.1683l-7.0959 7.0943v3.1609z"/><path d="M38.5558 56.3418h-2.155V38.4512l5.5015-6.603h5.5328l8.8665-10.2495h8.3752v2.1549h-7.3902l-8.8665 10.2495h-5.5087l-4.3556 5.228z"/><path d="M51.535 70.778l-4.6852-4.2663V55.8939l-6.5066-5.5151V38.5654l3.2195-2.971h8.2514l2.4436-2.4436 1.5237 1.5237-3.0748 3.0748h-8.3028l-1.9065 1.7593V49.38l6.5074 5.5152v10.6652l3.981 3.6247zM26.5172 39.8238l-1.473-1.5728L37.118 26.9433V4.6585h2.155v23.2192zm10.9611 16.518c-1.8952 0-3.435 1.5398-3.435 3.4382 0 1.8968 1.5398 3.4342 3.435 3.4342 1.9 0 3.4366-1.5374 3.4366-3.4342 0-1.8984-1.5366-3.4382-3.4366-3.4382zm-10.1473 2.807c-1.9009 0-3.4383 1.5438-3.4383 3.4398 0 1.8984 1.5382 3.435 3.4382 3.435 1.8968 0 3.4342-1.5366 3.4342-3.435.0008-1.896-1.5374-3.4398-3.4342-3.4398z"/><circle cx="29.038" cy="79.819" r="2.138" transform="translate(3.9823 -1.5915) scale(.80407)"/><path d="M37.4783 69.3525c-1.8952 0-3.435 1.5357-3.435 3.4333 0 1.8985 1.5398 3.4382 3.435 3.4382 1.9 0 3.4366-1.5397 3.4366-3.4382 0-1.8968-1.5366-3.4333-3.4366-3.4333z"/><path d="M37.4783 71.0692c-.948 0-1.7183.7686-1.7183 1.7166 0 .9513.7703 1.72 1.7183 1.72.9528 0 1.72-.7687 1.72-1.72 0-.948-.7672-1.7166-1.72-1.7166zM13.4382 57.4345C11.5358 57.4345 10 58.972 10 60.8687c0 1.8984 1.5366 3.4382 3.4382 3.4382 1.8984 0 3.4334-1.5398 3.4334-3.4382-.0008-1.8968-1.535-3.4342-3.4334-3.4342z"/><path d="M13.4382 59.1488c-.9512 0-1.7199.7711-1.7199 1.7207 0 .9512.7687 1.72 1.72 1.72.9439 0 1.7166-.7688 1.7166-1.72 0-.9496-.7727-1.7207-1.7167-1.7207zm44.1925-29.9299c-1.896 0-3.4333 1.5382-3.4333 3.4382 0 1.8968 1.5365 3.4342 3.4333 3.4342 1.9025 0 3.4383-1.5382 3.4383-3.4342 0-1.9008-1.5358-3.4382-3.4383-3.4382z"/><path d="M57.6307 30.9372c-.9496 0-1.7166.7703-1.7166 1.7199 0 .944.767 1.7183 1.7166 1.7183.9513 0 1.7208-.7743 1.7208-1.7183-.0008-.9488-.7703-1.72-1.7208-1.72zm9.7574-11.6936c-1.9 0-3.4374 1.5365-3.4374 3.4333 0 1.9025 1.5374 3.4399 3.4374 3.4399 1.9009 0 3.4366-1.5382 3.4366-3.4399.0009-1.8976-1.535-3.4333-3.4366-3.4333z"/><path d="M67.3881 20.9595c-.9512 0-1.7199.767-1.7199 1.7166 0 .9529.7687 1.7183 1.72 1.7183.948 0 1.7166-.7654 1.7166-1.7183 0-.9496-.7687-1.7166-1.7167-1.7166zM47.3242 39.5086c-1.9025 0-3.4382 1.5422-3.4382 3.4366 0 1.8984 1.5357 3.4382 3.4382 3.4382 1.8968 0 3.4333-1.5398 3.4333-3.4382 0-1.8944-1.5357-3.4366-3.4333-3.4366z"/><path d="M47.3242 41.2269c-.9512 0-1.7207.771-1.7207 1.719 0 .9513.7695 1.72 1.7207 1.72.9464 0 1.715-.7687 1.715-1.72 0-.948-.7686-1.719-1.715-1.719zm9.4438 2.7957h-6.0105v-2.154h5.0761L78.4264 17.731 80 19.2034zm-32.7096-6.3771c-1.9 0-3.4398 1.5382-3.4398 3.435 0 1.896 1.5398 3.4382 3.4398 3.4382 1.8968 0 3.435-1.5422 3.435-3.4382 0-1.8968-1.5374-3.435-3.435-3.435zM53.9232 68.464c-1.8984 0-3.4358 1.539-3.4358 3.4398 0 1.8928 1.5374 3.4342 3.4358 3.4342 1.9 0 3.4366-1.5414 3.4366-3.4342.0008-1.9008-1.5358-3.4398-3.4366-3.4398z"/></g><path d="M118.8352 18c7.7557 0 14.6591 5.7102 14.6591 15.4261v6.4773c0 1.6193-1.0227 2.642-2.7273 2.642h-23.3522v4.3466c0 5.1137 2.8977 7.841 7.9261 7.841h3.4943c5.2841 0 6.6478-1.5341 8.7784-4.091.5966-.6818 1.0228-.767 1.875-.1704l2.4716 1.7045c.8523.5966.8523 1.108.341 1.7898-3.0682 3.75-5.966 7.4148-13.466 7.4148h-3.4943c-9.2898 0-15.3409-6.392-15.3409-15.6818V33.5114C100 23.8807 106.0511 18 115.341 18h3.4942zm7.3296 18.6648v-3.8353c0-5.625-3.0682-8.267-7.3296-8.267h-3.4943c-5.0284 0-7.9261 2.642-7.9261 8.3523v3.75h18.75zM188.2954 18c9.716 0 13.0398 5.625 13.0398 15.0852v26.591c0 .8522-.4261 1.2783-1.2784 1.2783h-4.6875c-.8523 0-1.2784-.426-1.2784-1.2784v-27.017c0-5.4546-1.875-8.0966-7.159-8.0966h-1.2785c-5.625 0-9.034 3.1534-10.142 5.1136v30c0 .8523-.4262 1.2784-1.2785 1.2784h-4.6875c-.8522 0-1.2784-.426-1.2784-1.2784v-27.017c0-5.4546-1.875-8.0966-7.159-8.0966h-1.2785c-5.625 0-9.034 3.1534-10.142 5.1136v30c0 .8523-.4261 1.2784-1.2784 1.2784h-4.6875c-.8523 0-1.2784-.426-1.2784-1.2784V19.6193c0-.8523.4261-1.2784 1.2784-1.2784h4.6875c.8523 0 1.2784.4261 1.2784 1.2784v4.6875C152.0739 20.642 156.1648 18 161.7898 18h.6818c6.6477 0 10.3125 2.7273 11.9318 7.5l1.108-1.1932C177.8977 20.642 181.9886 18 187.6136 18h.6818zm47.983 6.5625c-.341.767-1.0227.9375-1.875.6818-1.2784-.4261-2.7273-.6818-4.4318-.6818h-1.0227c-5.625 0-9.0341 3.1534-10.142 5.1136v30c0 .8523-.4262 1.2784-1.2785 1.2784h-4.6875c-.8523 0-1.2784-.426-1.2784-1.2784V19.6193c0-.8523.4261-1.2784 1.2784-1.2784h4.6875c.8523 0 1.2784.4261 1.2784 1.2784v4.6875C221.5341 20.0455 226.0511 18 231.591 18c2.216 0 4.1761.341 5.8807 1.0227.8523.4262 1.0227 1.0228.5966 1.9603zm43.4659-6.2216c.9375 0 1.0227.6818.6818 1.4489l-22.5 56.7613C257.4148 77.7443 256.733 78 256.0511 78h-4.6022c-1.0228 0-1.1932-.6818-.8523-1.534l7.0738-17.8126-15.426-38.8636c-.2558-.767-.1705-1.4489.767-1.4489h5.0284c.6818 0 1.108.341 1.534 1.3636l11.6762 30 11.9318-30c.4261-1.0227.767-1.3636 1.5341-1.3636h5.0284zm22.5852 17.7273c10.3125 1.1932 16.5341 3.0682 16.5341 12.784 0 8.8637-5.9659 12.5285-14.8295 12.5285h-3.1534c-8.608 0-13.6364-3.8352-14.6591-10.9091-.1705-.767.3409-1.2784 1.1932-1.2784h4.517c.9375 0 1.4489.3409 1.7045 1.108.9375 2.9829 2.8125 4.517 7.074 4.517h3.5795c4.517 0 7.4147-1.6193 7.4147-5.966 0-4.7727-2.8125-5.7102-9.375-6.3067-10.7386-.9375-15.6818-3.4944-15.6818-12.5285 0-8.4375 5.625-11.9318 14.233-11.9318h2.8125c8.267 0 13.9772 4.091 14.233 11.7614 0 .8523-.2558 1.3636-1.1933 1.3636h-4.3466c-.9375 0-1.534-.4261-1.875-1.4488-.5113-3.3239-2.5568-5.1989-6.9886-5.1989h-2.5568c-4.517 0-7.1591 1.534-7.1591 5.3693 0 4.091 2.3011 5.4546 8.5227 6.1364z" fill="#2c2c31"/></svg>